# MagicaVoxel @ Ephtracy

# group
o 

# material
mtllib character_nose_03.mtl
usemtl palette

# normals
vn -1 0 0
vn 1 0 0
vn 0 0 1
vn 0 0 -1
vn 0 -1 0
vn 0 1 0

# texcoords
vt 0.197266 0.5
vt 0.228516 0.5
vt 0.994141 0.5

# verts
v 0 0.4 -0.6
v 0 0.4 -1
v 0 1.5 -0.6
v 0 1.5 -1
v 0.4 0.7 -0.3
v 0.4 0.7 -0.6
v 0.4 0.7 -1
v 0.4 0.7 -1.3
v 0.4 1.2 -0.3
v 0.4 1.2 -0.6
v 0.4 1.2 -1
v 0.4 1.2 -1.3
v 0.9 0.7 -0.4
v 0.9 0.7 -0.6
v 0.9 0.7 -1
v 0.9 0.7 -1.2
v 0.9 0.8 -0.4
v 0.9 0.8 -0.6
v 0.9 0.8 -1
v 0.9 0.8 -1.2
v 1 0.5 -0.3
v 1 0.5 -0.6
v 1 0.5 -1
v 1 0.5 -1.3
v 1 0.6 -0.2
v 1 0.6 -0.3
v 1 0.6 -1.3
v 1 0.6 -1.4
v 1 0.7 -0.1
v 1 0.7 -0.2
v 1 0.7 -0.3
v 1 0.7 -0.6
v 1 0.7 -1
v 1 0.7 -1.3
v 1 0.7 -1.4
v 1 0.7 -1.5
v 1 0.8 0
v 1 0.8 -0.1
v 1 0.8 -1.5
v 1 0.8 -1.6
v 1 0.9 0
v 1 0.9 -0.3
v 1 0.9 -1.3
v 1 0.9 -1.6
v 0.5 0.7 -0.4
v 0.5 0.7 -0.6
v 0.5 0.7 -1
v 0.5 0.7 -1.2
v 0.5 0.8 -0.4
v 0.5 0.8 -0.6
v 0.5 0.8 -1
v 0.5 0.8 -1.2
v 1 0.4 -0.6
v 1 0.4 -1
v 1 0.5 -0.6
v 1 0.5 -1
v 1 0.6 -0.6
v 1 0.6 -0.7
v 1 0.6 -0.9
v 1 0.6 -1
v 1 0.7 -0.7
v 1 0.7 -0.9
v 1 0.9 -0.3
v 1 0.9 -0.6
v 1 0.9 -1
v 1 0.9 -1.3
v 1 1.1 -0.6
v 1 1.1 -1
v 1 1.2 -0.3
v 1 1.2 -0.6
v 1 1.2 -1
v 1 1.2 -1.3
v 1.1 0.5 -0.3
v 1.1 0.5 -0.6
v 1.1 0.5 -1
v 1.1 0.5 -1.3
v 1.1 0.6 -0.2
v 1.1 0.6 -0.3
v 1.1 0.6 -0.6
v 1.1 0.6 -0.7
v 1.1 0.6 -0.9
v 1.1 0.6 -1
v 1.1 0.6 -1.3
v 1.1 0.6 -1.4
v 1.1 0.7 -0.1
v 1.1 0.7 -0.2
v 1.1 0.7 -0.7
v 1.1 0.7 -0.9
v 1.1 0.7 -1.4
v 1.1 0.7 -1.5
v 1.1 0.8 0
v 1.1 0.8 -0.1
v 1.1 0.8 -1.5
v 1.1 0.8 -1.6
v 1.1 0.9 0
v 1.1 0.9 -0.6
v 1.1 0.9 -1
v 1.1 0.9 -1.6
v 1.5 1.4 -0.6
v 1.5 1.4 -1
v 1.5 1.5 -0.6
v 1.5 1.5 -1
v 1.6 0.9 -0.6
v 1.6 0.9 -1
v 1.6 1.4 -0.6
v 1.6 1.4 -1
v 1 0.8 0
v 1 0.9 0
v 1.1 0.8 0
v 1.1 0.9 0
v 1 0.7 -0.1
v 1 0.8 -0.1
v 1.1 0.7 -0.1
v 1.1 0.8 -0.1
v 1 0.6 -0.2
v 1 0.7 -0.2
v 1.1 0.6 -0.2
v 1.1 0.7 -0.2
v 0.4 0.7 -0.3
v 0.4 1.2 -0.3
v 1 0.5 -0.3
v 1 0.6 -0.3
v 1 0.7 -0.3
v 1 0.9 -0.3
v 1 1.2 -0.3
v 1.1 0.5 -0.3
v 1.1 0.6 -0.3
v 0 0.4 -0.6
v 0 1.5 -0.6
v 0.3 0.6 -0.6
v 0.3 1.3 -0.6
v 0.4 0.7 -0.6
v 0.4 1.2 -0.6
v 0.5 0.7 -0.6
v 0.5 0.8 -0.6
v 0.8 0.6 -0.6
v 0.8 0.8 -0.6
v 0.9 0.7 -0.6
v 0.9 0.8 -0.6
v 1 0.4 -0.6
v 1 0.5 -0.6
v 1 0.7 -0.6
v 1 0.9 -0.6
v 1 1.1 -0.6
v 1 1.2 -0.6
v 1.1 0.9 -0.6
v 1.1 1.1 -0.6
v 1.1 1.3 -0.6
v 1.5 1.4 -0.6
v 1.5 1.5 -0.6
v 1.6 0.9 -0.6
v 1.6 1.4 -0.6
v 1 0.6 -0.9
v 1 0.7 -0.9
v 1.1 0.6 -0.9
v 1.1 0.7 -0.9
v 1 0.5 -1
v 1 0.6 -1
v 1.1 0.5 -1
v 1.1 0.6 -1
v 0.5 0.7 -1.2
v 0.5 0.8 -1.2
v 0.8 0.8 -1.2
v 0.9 0.7 -1.2
v 0.9 0.8 -1.2
v 0.5 0.7 -0.4
v 0.5 0.8 -0.4
v 0.8 0.8 -0.4
v 0.9 0.7 -0.4
v 0.9 0.8 -0.4
v 1 0.5 -0.6
v 1 0.6 -0.6
v 1.1 0.5 -0.6
v 1.1 0.6 -0.6
v 1 0.6 -0.7
v 1 0.7 -0.7
v 1.1 0.6 -0.7
v 1.1 0.7 -0.7
v 0 0.4 -1
v 0 1.5 -1
v 0.3 0.6 -1
v 0.3 1.3 -1
v 0.4 0.7 -1
v 0.4 1.2 -1
v 0.5 0.7 -1
v 0.5 0.8 -1
v 0.8 0.6 -1
v 0.8 0.8 -1
v 0.9 0.7 -1
v 0.9 0.8 -1
v 1 0.4 -1
v 1 0.5 -1
v 1 0.7 -1
v 1 0.9 -1
v 1 1.1 -1
v 1 1.2 -1
v 1.1 0.9 -1
v 1.1 1.1 -1
v 1.1 1.3 -1
v 1.5 1.4 -1
v 1.5 1.5 -1
v 1.6 0.9 -1
v 1.6 1.4 -1
v 0.4 0.7 -1.3
v 0.4 1.2 -1.3
v 1 0.5 -1.3
v 1 0.6 -1.3
v 1 0.7 -1.3
v 1 0.9 -1.3
v 1 1.2 -1.3
v 1.1 0.5 -1.3
v 1.1 0.6 -1.3
v 1 0.6 -1.4
v 1 0.7 -1.4
v 1.1 0.6 -1.4
v 1.1 0.7 -1.4
v 1 0.7 -1.5
v 1 0.8 -1.5
v 1.1 0.7 -1.5
v 1.1 0.8 -1.5
v 1 0.8 -1.6
v 1 0.9 -1.6
v 1.1 0.8 -1.6
v 1.1 0.9 -1.6
v 0 0.4 -0.6
v 1 0.4 -0.6
v 0 0.4 -1
v 1 0.4 -1
v 1 0.5 -0.3
v 1.1 0.5 -0.3
v 1 0.5 -0.6
v 1.1 0.5 -0.6
v 1 0.5 -1
v 1.1 0.5 -1
v 1 0.5 -1.3
v 1.1 0.5 -1.3
v 1 0.6 -0.2
v 1.1 0.6 -0.2
v 1 0.6 -0.3
v 1.1 0.6 -0.3
v 1 0.6 -0.6
v 1.1 0.6 -0.6
v 1 0.6 -0.7
v 1.1 0.6 -0.7
v 1 0.6 -0.9
v 1.1 0.6 -0.9
v 1 0.6 -1
v 1.1 0.6 -1
v 1 0.6 -1.3
v 1.1 0.6 -1.3
v 1 0.6 -1.4
v 1.1 0.6 -1.4
v 1 0.7 -0.1
v 1.1 0.7 -0.1
v 1 0.7 -0.2
v 1.1 0.7 -0.2
v 0.4 0.7 -0.3
v 1 0.7 -0.3
v 0.5 0.7 -0.4
v 0.9 0.7 -0.4
v 0.4 0.7 -0.6
v 0.5 0.7 -0.6
v 0.9 0.7 -0.6
v 1 0.7 -0.6
v 1 0.7 -0.7
v 1.1 0.7 -0.7
v 1 0.7 -0.9
v 1.1 0.7 -0.9
v 0.4 0.7 -1
v 0.5 0.7 -1
v 0.9 0.7 -1
v 1 0.7 -1
v 0.5 0.7 -1.2
v 0.9 0.7 -1.2
v 0.4 0.7 -1.3
v 1 0.7 -1.3
v 1 0.7 -1.4
v 1.1 0.7 -1.4
v 1 0.7 -1.5
v 1.1 0.7 -1.5
v 1 0.8 0
v 1.1 0.8 0
v 1 0.8 -0.1
v 1.1 0.8 -0.1
v 0.5 0.8 -0.4
v 0.8 0.8 -0.4
v 0.9 0.8 -0.4
v 0.5 0.8 -0.6
v 0.8 0.8 -0.6
v 0.9 0.8 -0.6
v 0.5 0.8 -1
v 0.8 0.8 -1
v 0.9 0.8 -1
v 0.5 0.8 -1.2
v 0.8 0.8 -1.2
v 0.9 0.8 -1.2
v 1 0.8 -1.5
v 1.1 0.8 -1.5
v 1 0.8 -1.6
v 1.1 0.8 -1.6
v 1.1 0.9 -0.6
v 1.6 0.9 -0.6
v 1.1 0.9 -1
v 1.6 0.9 -1
v 1 0.9 0
v 1.1 0.9 0
v 1 0.9 -0.3
v 1 0.9 -0.6
v 1.1 0.9 -0.6
v 1 0.9 -1
v 1.1 0.9 -1
v 1 0.9 -1.3
v 1 0.9 -1.6
v 1.1 0.9 -1.6
v 0.4 1.2 -0.3
v 1 1.2 -0.3
v 0.4 1.2 -0.6
v 1 1.2 -0.6
v 0.4 1.2 -1
v 1 1.2 -1
v 0.4 1.2 -1.3
v 1 1.2 -1.3
v 1.5 1.4 -0.6
v 1.6 1.4 -0.6
v 1.5 1.4 -1
v 1.6 1.4 -1
v 0 1.5 -0.6
v 1.5 1.5 -0.6
v 0 1.5 -1
v 1.5 1.5 -1

# faces
f 3/2/1 2/2/1 1/2/1
f 4/2/1 2/2/1 3/2/1
f 9/2/1 6/2/1 5/2/1
f 10/2/1 6/2/1 9/2/1
f 11/2/1 8/2/1 7/2/1
f 12/2/1 8/2/1 11/2/1
f 17/2/1 14/2/1 13/2/1
f 18/2/1 14/2/1 17/2/1
f 19/2/1 16/2/1 15/2/1
f 20/2/1 16/2/1 19/2/1
f 26/3/1 22/3/1 21/3/1
f 27/3/1 24/3/1 23/3/1
f 30/3/1 26/3/1 25/3/1
f 31/3/1 22/3/1 26/3/1
f 31/3/1 26/3/1 30/3/1
f 32/3/1 22/3/1 31/3/1
f 33/3/1 28/3/1 27/3/1
f 33/3/1 27/3/1 23/3/1
f 34/3/1 28/3/1 33/3/1
f 35/3/1 28/3/1 34/3/1
f 38/3/1 30/3/1 29/3/1
f 38/3/1 31/3/1 30/3/1
f 39/3/1 36/3/1 35/3/1
f 39/3/1 35/3/1 34/3/1
f 41/3/1 38/3/1 37/3/1
f 42/3/1 31/3/1 38/3/1
f 42/3/1 38/3/1 41/3/1
f 43/3/1 40/3/1 39/3/1
f 43/3/1 39/3/1 34/3/1
f 44/3/1 40/3/1 43/3/1
f 45/2/2 46/2/2 49/2/2
f 49/2/2 46/2/2 50/2/2
f 47/2/2 48/2/2 51/2/2
f 51/2/2 48/2/2 52/2/2
f 53/2/2 54/2/2 55/2/2
f 55/2/2 54/2/2 56/2/2
f 55/2/2 56/2/2 57/2/2
f 57/2/2 56/2/2 58/2/2
f 58/2/2 56/2/2 59/2/2
f 59/2/2 56/2/2 60/2/2
f 58/2/2 59/2/2 61/2/2
f 61/2/2 59/2/2 62/2/2
f 63/2/2 64/2/2 67/2/2
f 65/2/2 66/2/2 68/2/2
f 63/2/2 67/2/2 69/2/2
f 69/2/2 67/2/2 70/2/2
f 68/2/2 66/2/2 71/2/2
f 71/2/2 66/2/2 72/2/2
f 73/3/2 74/3/2 78/3/2
f 78/3/2 74/3/2 79/3/2
f 75/3/2 76/3/2 82/3/2
f 82/3/2 76/3/2 83/3/2
f 79/3/2 80/3/2 86/3/2
f 77/3/2 78/3/2 86/3/2
f 78/3/2 79/3/2 86/3/2
f 86/3/2 80/3/2 87/3/2
f 83/3/2 84/3/2 88/3/2
f 82/3/2 83/3/2 88/3/2
f 81/3/2 82/3/2 88/3/2
f 88/3/2 84/3/2 89/3/2
f 86/3/2 87/3/2 92/3/2
f 89/3/2 90/3/2 92/3/2
f 88/3/2 89/3/2 92/3/2
f 87/3/2 88/3/2 92/3/2
f 85/3/2 86/3/2 92/3/2
f 92/3/2 90/3/2 93/3/2
f 91/3/2 92/3/2 95/3/2
f 93/3/2 94/3/2 95/3/2
f 92/3/2 93/3/2 95/3/2
f 95/3/2 94/3/2 96/3/2
f 96/3/2 94/3/2 97/3/2
f 97/3/2 94/3/2 98/3/2
f 99/2/2 100/2/2 101/2/2
f 101/2/2 100/2/2 102/2/2
f 103/2/2 104/2/2 105/2/2
f 105/2/2 104/2/2 106/2/2
f 109/3/3 108/3/3 107/3/3
f 110/3/3 108/3/3 109/3/3
f 113/3/3 112/3/3 111/3/3
f 114/3/3 112/3/3 113/3/3
f 117/3/3 116/3/3 115/3/3
f 118/3/3 116/3/3 117/3/3
f 123/2/3 120/2/3 119/2/3
f 124/2/3 120/2/3 123/2/3
f 125/2/3 120/2/3 124/2/3
f 126/3/3 122/3/3 121/3/3
f 127/3/3 122/3/3 126/3/3
f 130/2/3 129/2/3 128/2/3
f 131/2/3 129/2/3 130/2/3
f 132/1/3 131/1/3 130/1/3
f 133/1/3 131/1/3 132/1/3
f 134/1/3 132/1/3 130/1/3
f 136/2/3 130/2/3 128/2/3
f 136/1/3 135/1/3 134/1/3
f 136/1/3 134/1/3 130/1/3
f 137/1/3 135/1/3 136/1/3
f 138/2/3 137/2/3 136/2/3
f 139/2/3 137/2/3 138/2/3
f 140/2/3 136/2/3 128/2/3
f 140/2/3 138/2/3 136/2/3
f 141/2/3 138/2/3 140/2/3
f 142/2/3 138/2/3 141/2/3
f 145/1/3 131/1/3 133/1/3
f 146/2/3 144/2/3 143/2/3
f 147/1/3 145/1/3 144/1/3
f 147/2/3 144/2/3 146/2/3
f 148/2/3 129/2/3 131/2/3
f 148/1/3 145/1/3 147/1/3
f 148/1/3 131/1/3 145/1/3
f 149/2/3 147/2/3 146/2/3
f 149/2/3 129/2/3 148/2/3
f 149/2/3 148/2/3 147/2/3
f 150/2/3 129/2/3 149/2/3
f 151/2/3 149/2/3 146/2/3
f 152/2/3 149/2/3 151/2/3
f 155/3/3 154/3/3 153/3/3
f 156/3/3 154/3/3 155/3/3
f 159/3/3 158/3/3 157/3/3
f 160/3/3 158/3/3 159/3/3
f 163/2/3 162/2/3 161/2/3
f 164/2/3 163/2/3 161/2/3
f 165/2/3 163/2/3 164/2/3
f 166/2/4 167/2/4 168/2/4
f 166/2/4 168/2/4 169/2/4
f 169/2/4 168/2/4 170/2/4
f 171/3/4 172/3/4 173/3/4
f 173/3/4 172/3/4 174/3/4
f 175/3/4 176/3/4 177/3/4
f 177/3/4 176/3/4 178/3/4
f 179/2/4 180/2/4 181/2/4
f 181/2/4 180/2/4 182/2/4
f 181/1/4 182/1/4 183/1/4
f 183/1/4 182/1/4 184/1/4
f 181/1/4 183/1/4 185/1/4
f 179/2/4 181/2/4 187/2/4
f 185/1/4 186/1/4 187/1/4
f 181/1/4 185/1/4 187/1/4
f 187/1/4 186/1/4 188/1/4
f 187/2/4 188/2/4 189/2/4
f 189/2/4 188/2/4 190/2/4
f 179/2/4 187/2/4 191/2/4
f 187/2/4 189/2/4 191/2/4
f 191/2/4 189/2/4 192/2/4
f 192/2/4 189/2/4 193/2/4
f 184/1/4 182/1/4 196/1/4
f 194/2/4 195/2/4 197/2/4
f 195/1/4 196/1/4 198/1/4
f 197/2/4 195/2/4 198/2/4
f 182/2/4 180/2/4 199/2/4
f 198/1/4 196/1/4 199/1/4
f 196/1/4 182/1/4 199/1/4
f 197/2/4 198/2/4 200/2/4
f 199/2/4 180/2/4 200/2/4
f 198/2/4 199/2/4 200/2/4
f 200/2/4 180/2/4 201/2/4
f 197/2/4 200/2/4 202/2/4
f 202/2/4 200/2/4 203/2/4
f 204/2/4 205/2/4 208/2/4
f 208/2/4 205/2/4 209/2/4
f 209/2/4 205/2/4 210/2/4
f 206/3/4 207/3/4 211/3/4
f 211/3/4 207/3/4 212/3/4
f 213/3/4 214/3/4 215/3/4
f 215/3/4 214/3/4 216/3/4
f 217/3/4 218/3/4 219/3/4
f 219/3/4 218/3/4 220/3/4
f 221/3/4 222/3/4 223/3/4
f 223/3/4 222/3/4 224/3/4
f 227/2/5 226/2/5 225/2/5
f 228/2/5 226/2/5 227/2/5
f 231/3/5 230/3/5 229/3/5
f 232/3/5 230/3/5 231/3/5
f 235/3/5 234/3/5 233/3/5
f 236/3/5 234/3/5 235/3/5
f 239/3/5 238/3/5 237/3/5
f 240/3/5 238/3/5 239/3/5
f 243/3/5 242/3/5 241/3/5
f 244/3/5 242/3/5 243/3/5
f 247/3/5 246/3/5 245/3/5
f 248/3/5 246/3/5 247/3/5
f 251/3/5 250/3/5 249/3/5
f 252/3/5 250/3/5 251/3/5
f 255/3/5 254/3/5 253/3/5
f 256/3/5 254/3/5 255/3/5
f 259/2/5 258/2/5 257/2/5
f 260/2/5 258/2/5 259/2/5
f 261/2/5 259/2/5 257/2/5
f 262/2/5 259/2/5 261/2/5
f 263/2/5 258/2/5 260/2/5
f 264/2/5 258/2/5 263/2/5
f 267/3/5 266/3/5 265/3/5
f 268/3/5 266/3/5 267/3/5
f 273/2/5 270/2/5 269/2/5
f 274/2/5 272/2/5 271/2/5
f 275/2/5 273/2/5 269/2/5
f 275/2/5 274/2/5 273/2/5
f 276/2/5 272/2/5 274/2/5
f 276/2/5 274/2/5 275/2/5
f 279/3/5 278/3/5 277/3/5
f 280/3/5 278/3/5 279/3/5
f 283/3/5 282/3/5 281/3/5
f 284/3/5 282/3/5 283/3/5
f 288/3/5 286/3/5 285/3/5
f 289/2/5 287/2/5 286/2/5
f 289/3/5 286/3/5 288/3/5
f 290/2/5 287/2/5 289/2/5
f 294/3/5 292/3/5 291/3/5
f 295/2/5 293/2/5 292/2/5
f 295/3/5 292/3/5 294/3/5
f 296/2/5 293/2/5 295/2/5
f 299/3/5 298/3/5 297/3/5
f 300/3/5 298/3/5 299/3/5
f 303/2/5 302/2/5 301/2/5
f 304/2/5 302/2/5 303/2/5
f 305/3/6 306/3/6 307/3/6
f 307/3/6 306/3/6 308/3/6
f 308/3/6 306/3/6 309/3/6
f 310/3/6 311/3/6 312/3/6
f 312/3/6 311/3/6 313/3/6
f 313/3/6 311/3/6 314/3/6
f 315/2/6 316/2/6 317/2/6
f 317/2/6 316/2/6 318/2/6
f 319/2/6 320/2/6 321/2/6
f 321/2/6 320/2/6 322/2/6
f 323/2/6 324/2/6 325/2/6
f 325/2/6 324/2/6 326/2/6
f 327/2/6 328/2/6 329/2/6
f 329/2/6 328/2/6 330/2/6
