# MagicaVoxel @ Ephtracy

# group
o 

# material
mtllib ingredient_wheel.mtl
usemtl palette

# normals
vn -1 0 0
vn 1 0 0
vn 0 0 1
vn 0 0 -1
vn 0 -1 0
vn 0 1 0

# texcoords
vt 0.978516 0.5
vt 0.986328 0.5
vt 0.990234 0.5
vt 0.994141 0.5

# verts
v 0 0.8 -0.5
v 0 0.8 -0.6
v 0 0.8 -1
v 0 0.8 -1.1
v 0 1.4 -0.5
v 0 1.4 -0.6
v 0 1.4 -1
v 0 1.4 -1.1
v 0.1 0.7 -0.5
v 0.1 0.7 -0.6
v 0.1 0.7 -1
v 0.1 0.7 -1.1
v 0.1 0.8 -0.5
v 0.1 0.8 -0.6
v 0.1 0.8 -1
v 0.1 0.8 -1.1
v 0.1 1.4 -0.5
v 0.1 1.4 -0.6
v 0.1 1.4 -1
v 0.1 1.4 -1.1
v 0.1 1.5 -0.5
v 0.1 1.5 -0.6
v 0.1 1.5 -1
v 0.1 1.5 -1.1
v 0.2 0.6 -0.5
v 0.2 0.6 -0.6
v 0.2 0.6 -1
v 0.2 0.6 -1.1
v 0.2 0.7 -0.5
v 0.2 0.7 -0.6
v 0.2 0.7 -1
v 0.2 0.7 -1.1
v 0.2 1.5 -0.5
v 0.2 1.5 -0.6
v 0.2 1.5 -1
v 0.2 1.5 -1.1
v 0.2 1.6 -0.5
v 0.2 1.6 -0.6
v 0.2 1.6 -1
v 0.2 1.6 -1.1
v 0.3 0.5 -0.5
v 0.3 0.5 -0.6
v 0.3 0.5 -1
v 0.3 0.5 -1.1
v 0.3 0.6 -0.5
v 0.3 0.6 -0.6
v 0.3 0.6 -1
v 0.3 0.6 -1.1
v 0.3 1.6 -0.5
v 0.3 1.6 -0.6
v 0.3 1.6 -1
v 0.3 1.6 -1.1
v 0.3 1.7 -0.5
v 0.3 1.7 -0.6
v 0.3 1.7 -1
v 0.3 1.7 -1.1
v 0.4 0.4 -0.5
v 0.4 0.4 -0.6
v 0.4 0.4 -1
v 0.4 0.4 -1.1
v 0.4 0.5 -0.5
v 0.4 0.5 -0.6
v 0.4 0.5 -1
v 0.4 0.5 -1.1
v 0.4 1.7 -0.5
v 0.4 1.7 -0.6
v 0.4 1.7 -1
v 0.4 1.7 -1.1
v 0.4 1.8 -0.5
v 0.4 1.8 -0.6
v 0.4 1.8 -1
v 0.4 1.8 -1.1
v 0.9 0.7 -0.5
v 0.9 0.7 -0.6
v 0.9 0.7 -1
v 0.9 0.7 -1.1
v 0.9 0.8 -0.5
v 0.9 0.8 -0.6
v 0.9 0.8 -1
v 0.9 0.8 -1.1
v 0.9 1.4 -0.5
v 0.9 1.4 -0.6
v 0.9 1.4 -1
v 0.9 1.4 -1.1
v 0.9 1.5 -0.5
v 0.9 1.5 -0.6
v 0.9 1.5 -1
v 0.9 1.5 -1.1
v 1.1 0.8 -0.5
v 1.1 0.8 -0.6
v 1.1 0.8 -1
v 1.1 0.8 -1.1
v 1.1 1 -0.5
v 1.1 1 -0.6
v 1.1 1 -1
v 1.1 1 -1.1
v 1.1 1.2 -0.5
v 1.1 1.2 -0.6
v 1.1 1.2 -1
v 1.1 1.2 -1.1
v 1.1 1.4 -0.5
v 1.1 1.4 -0.6
v 1.1 1.4 -1
v 1.1 1.4 -1.1
v 1.2 1 -0.5
v 1.2 1 -0.6
v 1.2 1 -1
v 1.2 1 -1.1
v 1.2 1.2 -0.5
v 1.2 1.2 -0.6
v 1.2 1.2 -1
v 1.2 1.2 -1.1
v 0.4 1 -0.5
v 0.4 1 -0.6
v 0.4 1 -1
v 0.4 1 -1.1
v 0.4 1.2 -0.5
v 0.4 1.2 -0.6
v 0.4 1.2 -1
v 0.4 1.2 -1.1
v 0.5 0.8 -0.5
v 0.5 0.8 -0.6
v 0.5 0.8 -1
v 0.5 0.8 -1.1
v 0.5 1 -0.5
v 0.5 1 -0.6
v 0.5 1 -1
v 0.5 1 -1.1
v 0.5 1.2 -0.5
v 0.5 1.2 -0.6
v 0.5 1.2 -1
v 0.5 1.2 -1.1
v 0.5 1.4 -0.5
v 0.5 1.4 -0.6
v 0.5 1.4 -1
v 0.5 1.4 -1.1
v 0.7 0.7 -0.5
v 0.7 0.7 -0.6
v 0.7 0.7 -1
v 0.7 0.7 -1.1
v 0.7 0.8 -0.5
v 0.7 0.8 -0.6
v 0.7 0.8 -1
v 0.7 0.8 -1.1
v 0.7 1.4 -0.5
v 0.7 1.4 -0.6
v 0.7 1.4 -1
v 0.7 1.4 -1.1
v 0.7 1.5 -0.5
v 0.7 1.5 -0.6
v 0.7 1.5 -1
v 0.7 1.5 -1.1
v 1.2 0.4 -0.5
v 1.2 0.4 -0.6
v 1.2 0.4 -1
v 1.2 0.4 -1.1
v 1.2 0.5 -0.5
v 1.2 0.5 -0.6
v 1.2 0.5 -1
v 1.2 0.5 -1.1
v 1.2 1.7 -0.5
v 1.2 1.7 -0.6
v 1.2 1.7 -1
v 1.2 1.7 -1.1
v 1.2 1.8 -0.5
v 1.2 1.8 -0.6
v 1.2 1.8 -1
v 1.2 1.8 -1.1
v 1.3 0.5 -0.5
v 1.3 0.5 -0.6
v 1.3 0.5 -1
v 1.3 0.5 -1.1
v 1.3 0.6 -0.5
v 1.3 0.6 -0.6
v 1.3 0.6 -1
v 1.3 0.6 -1.1
v 1.3 1.6 -0.5
v 1.3 1.6 -0.6
v 1.3 1.6 -1
v 1.3 1.6 -1.1
v 1.3 1.7 -0.5
v 1.3 1.7 -0.6
v 1.3 1.7 -1
v 1.3 1.7 -1.1
v 1.4 0.6 -0.5
v 1.4 0.6 -0.6
v 1.4 0.6 -1
v 1.4 0.6 -1.1
v 1.4 0.7 -0.5
v 1.4 0.7 -0.6
v 1.4 0.7 -1
v 1.4 0.7 -1.1
v 1.4 1.5 -0.5
v 1.4 1.5 -0.6
v 1.4 1.5 -1
v 1.4 1.5 -1.1
v 1.4 1.6 -0.5
v 1.4 1.6 -0.6
v 1.4 1.6 -1
v 1.4 1.6 -1.1
v 1.5 0.7 -0.5
v 1.5 0.7 -0.6
v 1.5 0.7 -1
v 1.5 0.7 -1.1
v 1.5 0.8 -0.5
v 1.5 0.8 -0.6
v 1.5 0.8 -1
v 1.5 0.8 -1.1
v 1.5 1.4 -0.5
v 1.5 1.4 -0.6
v 1.5 1.4 -1
v 1.5 1.4 -1.1
v 1.5 1.5 -0.5
v 1.5 1.5 -0.6
v 1.5 1.5 -1
v 1.5 1.5 -1.1
v 1.6 0.8 -0.5
v 1.6 0.8 -0.6
v 1.6 0.8 -1
v 1.6 0.8 -1.1
v 1.6 1.4 -0.5
v 1.6 1.4 -0.6
v 1.6 1.4 -1
v 1.6 1.4 -1.1
v 0 0.8 -0.5
v 0 1.4 -0.5
v 0.1 0.7 -0.5
v 0.1 0.8 -0.5
v 0.1 1.4 -0.5
v 0.1 1.5 -0.5
v 0.2 0.6 -0.5
v 0.2 0.7 -0.5
v 0.2 0.8 -0.5
v 0.2 1.4 -0.5
v 0.2 1.5 -0.5
v 0.2 1.6 -0.5
v 0.3 0.5 -0.5
v 0.3 0.6 -0.5
v 0.3 0.7 -0.5
v 0.3 1.5 -0.5
v 0.3 1.6 -0.5
v 0.3 1.7 -0.5
v 0.4 0.4 -0.5
v 0.4 0.5 -0.5
v 0.4 0.6 -0.5
v 0.4 1 -0.5
v 0.4 1.2 -0.5
v 0.4 1.6 -0.5
v 0.4 1.7 -0.5
v 0.4 1.8 -0.5
v 0.5 0.8 -0.5
v 0.5 1 -0.5
v 0.5 1.2 -0.5
v 0.5 1.4 -0.5
v 0.7 0.7 -0.5
v 0.7 0.8 -0.5
v 0.7 1.4 -0.5
v 0.7 1.5 -0.5
v 0.9 0.7 -0.5
v 0.9 0.8 -0.5
v 0.9 1.4 -0.5
v 0.9 1.5 -0.5
v 1.1 0.8 -0.5
v 1.1 1 -0.5
v 1.1 1.2 -0.5
v 1.1 1.4 -0.5
v 1.2 0.4 -0.5
v 1.2 0.5 -0.5
v 1.2 0.6 -0.5
v 1.2 1 -0.5
v 1.2 1.2 -0.5
v 1.2 1.6 -0.5
v 1.2 1.7 -0.5
v 1.2 1.8 -0.5
v 1.3 0.5 -0.5
v 1.3 0.6 -0.5
v 1.3 0.7 -0.5
v 1.3 1.5 -0.5
v 1.3 1.6 -0.5
v 1.3 1.7 -0.5
v 1.4 0.6 -0.5
v 1.4 0.7 -0.5
v 1.4 0.8 -0.5
v 1.4 1.4 -0.5
v 1.4 1.5 -0.5
v 1.4 1.6 -0.5
v 1.5 0.7 -0.5
v 1.5 0.8 -0.5
v 1.5 1.4 -0.5
v 1.5 1.5 -0.5
v 1.6 0.8 -0.5
v 1.6 1.4 -0.5
v 0.4 1 -0.6
v 0.4 1.2 -0.6
v 0.5 0.8 -0.6
v 0.5 1 -0.6
v 0.5 1.2 -0.6
v 0.5 1.4 -0.6
v 0.7 0.7 -0.6
v 0.7 0.8 -0.6
v 0.7 1 -0.6
v 0.7 1.2 -0.6
v 0.7 1.4 -0.6
v 0.7 1.5 -0.6
v 0.9 0.7 -0.6
v 0.9 0.8 -0.6
v 0.9 1 -0.6
v 0.9 1.2 -0.6
v 0.9 1.4 -0.6
v 0.9 1.5 -0.6
v 1.1 0.8 -0.6
v 1.1 1 -0.6
v 1.1 1.2 -0.6
v 1.1 1.4 -0.6
v 1.2 1 -0.6
v 1.2 1.2 -0.6
v 0.4 1 -1
v 0.4 1.2 -1
v 0.5 0.8 -1
v 0.5 1 -1
v 0.5 1.2 -1
v 0.5 1.4 -1
v 0.7 0.7 -1
v 0.7 0.8 -1
v 0.7 1 -1
v 0.7 1.2 -1
v 0.7 1.4 -1
v 0.7 1.5 -1
v 0.9 0.7 -1
v 0.9 0.8 -1
v 0.9 1 -1
v 0.9 1.2 -1
v 0.9 1.4 -1
v 0.9 1.5 -1
v 1.1 0.8 -1
v 1.1 1 -1
v 1.1 1.2 -1
v 1.1 1.4 -1
v 1.2 1 -1
v 1.2 1.2 -1
v 0 0.8 -1.1
v 0 1.4 -1.1
v 0.1 0.7 -1.1
v 0.1 0.8 -1.1
v 0.1 1.4 -1.1
v 0.1 1.5 -1.1
v 0.2 0.6 -1.1
v 0.2 0.7 -1.1
v 0.2 0.8 -1.1
v 0.2 1.4 -1.1
v 0.2 1.5 -1.1
v 0.2 1.6 -1.1
v 0.3 0.5 -1.1
v 0.3 0.6 -1.1
v 0.3 0.7 -1.1
v 0.3 1.5 -1.1
v 0.3 1.6 -1.1
v 0.3 1.7 -1.1
v 0.4 0.4 -1.1
v 0.4 0.5 -1.1
v 0.4 0.6 -1.1
v 0.4 1 -1.1
v 0.4 1.2 -1.1
v 0.4 1.6 -1.1
v 0.4 1.7 -1.1
v 0.4 1.8 -1.1
v 0.5 0.8 -1.1
v 0.5 1 -1.1
v 0.5 1.2 -1.1
v 0.5 1.4 -1.1
v 0.7 0.7 -1.1
v 0.7 0.8 -1.1
v 0.7 1.4 -1.1
v 0.7 1.5 -1.1
v 0.9 0.7 -1.1
v 0.9 0.8 -1.1
v 0.9 1.4 -1.1
v 0.9 1.5 -1.1
v 1.1 0.8 -1.1
v 1.1 1 -1.1
v 1.1 1.2 -1.1
v 1.1 1.4 -1.1
v 1.2 0.4 -1.1
v 1.2 0.5 -1.1
v 1.2 0.6 -1.1
v 1.2 1 -1.1
v 1.2 1.2 -1.1
v 1.2 1.6 -1.1
v 1.2 1.7 -1.1
v 1.2 1.8 -1.1
v 1.3 0.5 -1.1
v 1.3 0.6 -1.1
v 1.3 0.7 -1.1
v 1.3 1.5 -1.1
v 1.3 1.6 -1.1
v 1.3 1.7 -1.1
v 1.4 0.6 -1.1
v 1.4 0.7 -1.1
v 1.4 0.8 -1.1
v 1.4 1.4 -1.1
v 1.4 1.5 -1.1
v 1.4 1.6 -1.1
v 1.5 0.7 -1.1
v 1.5 0.8 -1.1
v 1.5 1.4 -1.1
v 1.5 1.5 -1.1
v 1.6 0.8 -1.1
v 1.6 1.4 -1.1
v 0.4 0.4 -0.5
v 1.2 0.4 -0.5
v 0.4 0.4 -0.6
v 1.2 0.4 -0.6
v 0.4 0.4 -1
v 1.2 0.4 -1
v 0.4 0.4 -1.1
v 1.2 0.4 -1.1
v 0.3 0.5 -0.5
v 0.4 0.5 -0.5
v 1.2 0.5 -0.5
v 1.3 0.5 -0.5
v 0.3 0.5 -0.6
v 0.4 0.5 -0.6
v 1.2 0.5 -0.6
v 1.3 0.5 -0.6
v 0.3 0.5 -1
v 0.4 0.5 -1
v 1.2 0.5 -1
v 1.3 0.5 -1
v 0.3 0.5 -1.1
v 0.4 0.5 -1.1
v 1.2 0.5 -1.1
v 1.3 0.5 -1.1
v 0.2 0.6 -0.5
v 0.3 0.6 -0.5
v 1.3 0.6 -0.5
v 1.4 0.6 -0.5
v 0.2 0.6 -0.6
v 0.3 0.6 -0.6
v 1.3 0.6 -0.6
v 1.4 0.6 -0.6
v 0.2 0.6 -1
v 0.3 0.6 -1
v 1.3 0.6 -1
v 1.4 0.6 -1
v 0.2 0.6 -1.1
v 0.3 0.6 -1.1
v 1.3 0.6 -1.1
v 1.4 0.6 -1.1
v 0.1 0.7 -0.5
v 0.2 0.7 -0.5
v 1.4 0.7 -0.5
v 1.5 0.7 -0.5
v 0.1 0.7 -0.6
v 0.2 0.7 -0.6
v 1.4 0.7 -0.6
v 1.5 0.7 -0.6
v 0.1 0.7 -1
v 0.2 0.7 -1
v 1.4 0.7 -1
v 1.5 0.7 -1
v 0.1 0.7 -1.1
v 0.2 0.7 -1.1
v 1.4 0.7 -1.1
v 1.5 0.7 -1.1
v 0 0.8 -0.5
v 0.1 0.8 -0.5
v 1.5 0.8 -0.5
v 1.6 0.8 -0.5
v 0 0.8 -0.6
v 0.1 0.8 -0.6
v 1.5 0.8 -0.6
v 1.6 0.8 -0.6
v 0 0.8 -1
v 0.1 0.8 -1
v 1.5 0.8 -1
v 1.6 0.8 -1
v 0 0.8 -1.1
v 0.1 0.8 -1.1
v 1.5 0.8 -1.1
v 1.6 0.8 -1.1
v 0.4 1.2 -0.5
v 0.5 1.2 -0.5
v 1.1 1.2 -0.5
v 1.2 1.2 -0.5
v 0.4 1.2 -0.6
v 0.5 1.2 -0.6
v 1.1 1.2 -0.6
v 1.2 1.2 -0.6
v 0.4 1.2 -1
v 0.5 1.2 -1
v 1.1 1.2 -1
v 1.2 1.2 -1
v 0.4 1.2 -1.1
v 0.5 1.2 -1.1
v 1.1 1.2 -1.1
v 1.2 1.2 -1.1
v 0.5 1.4 -0.5
v 0.7 1.4 -0.5
v 0.9 1.4 -0.5
v 1.1 1.4 -0.5
v 0.5 1.4 -0.6
v 0.7 1.4 -0.6
v 0.9 1.4 -0.6
v 1.1 1.4 -0.6
v 0.5 1.4 -1
v 0.7 1.4 -1
v 0.9 1.4 -1
v 1.1 1.4 -1
v 0.5 1.4 -1.1
v 0.7 1.4 -1.1
v 0.9 1.4 -1.1
v 1.1 1.4 -1.1
v 0.7 1.5 -0.5
v 0.9 1.5 -0.5
v 0.7 1.5 -0.6
v 0.9 1.5 -0.6
v 0.7 1.5 -1
v 0.9 1.5 -1
v 0.7 1.5 -1.1
v 0.9 1.5 -1.1
v 0.7 0.7 -0.5
v 0.9 0.7 -0.5
v 0.7 0.7 -0.6
v 0.9 0.7 -0.6
v 0.7 0.7 -1
v 0.9 0.7 -1
v 0.7 0.7 -1.1
v 0.9 0.7 -1.1
v 0.5 0.8 -0.5
v 0.7 0.8 -0.5
v 0.9 0.8 -0.5
v 1.1 0.8 -0.5
v 0.5 0.8 -0.6
v 0.7 0.8 -0.6
v 0.9 0.8 -0.6
v 1.1 0.8 -0.6
v 0.5 0.8 -1
v 0.7 0.8 -1
v 0.9 0.8 -1
v 1.1 0.8 -1
v 0.5 0.8 -1.1
v 0.7 0.8 -1.1
v 0.9 0.8 -1.1
v 1.1 0.8 -1.1
v 0.4 1 -0.5
v 0.5 1 -0.5
v 1.1 1 -0.5
v 1.2 1 -0.5
v 0.4 1 -0.6
v 0.5 1 -0.6
v 1.1 1 -0.6
v 1.2 1 -0.6
v 0.4 1 -1
v 0.5 1 -1
v 1.1 1 -1
v 1.2 1 -1
v 0.4 1 -1.1
v 0.5 1 -1.1
v 1.1 1 -1.1
v 1.2 1 -1.1
v 0 1.4 -0.5
v 0.1 1.4 -0.5
v 1.5 1.4 -0.5
v 1.6 1.4 -0.5
v 0 1.4 -0.6
v 0.1 1.4 -0.6
v 1.5 1.4 -0.6
v 1.6 1.4 -0.6
v 0 1.4 -1
v 0.1 1.4 -1
v 1.5 1.4 -1
v 1.6 1.4 -1
v 0 1.4 -1.1
v 0.1 1.4 -1.1
v 1.5 1.4 -1.1
v 1.6 1.4 -1.1
v 0.1 1.5 -0.5
v 0.2 1.5 -0.5
v 1.4 1.5 -0.5
v 1.5 1.5 -0.5
v 0.1 1.5 -0.6
v 0.2 1.5 -0.6
v 1.4 1.5 -0.6
v 1.5 1.5 -0.6
v 0.1 1.5 -1
v 0.2 1.5 -1
v 1.4 1.5 -1
v 1.5 1.5 -1
v 0.1 1.5 -1.1
v 0.2 1.5 -1.1
v 1.4 1.5 -1.1
v 1.5 1.5 -1.1
v 0.2 1.6 -0.5
v 0.3 1.6 -0.5
v 1.3 1.6 -0.5
v 1.4 1.6 -0.5
v 0.2 1.6 -0.6
v 0.3 1.6 -0.6
v 1.3 1.6 -0.6
v 1.4 1.6 -0.6
v 0.2 1.6 -1
v 0.3 1.6 -1
v 1.3 1.6 -1
v 1.4 1.6 -1
v 0.2 1.6 -1.1
v 0.3 1.6 -1.1
v 1.3 1.6 -1.1
v 1.4 1.6 -1.1
v 0.3 1.7 -0.5
v 0.4 1.7 -0.5
v 1.2 1.7 -0.5
v 1.3 1.7 -0.5
v 0.3 1.7 -0.6
v 0.4 1.7 -0.6
v 1.2 1.7 -0.6
v 1.3 1.7 -0.6
v 0.3 1.7 -1
v 0.4 1.7 -1
v 1.2 1.7 -1
v 1.3 1.7 -1
v 0.3 1.7 -1.1
v 0.4 1.7 -1.1
v 1.2 1.7 -1.1
v 1.3 1.7 -1.1
v 0.4 1.8 -0.5
v 1.2 1.8 -0.5
v 0.4 1.8 -0.6
v 1.2 1.8 -0.6
v 0.4 1.8 -1
v 1.2 1.8 -1
v 0.4 1.8 -1.1
v 1.2 1.8 -1.1

# faces
f 5/2/1 2/2/1 1/2/1
f 6/3/1 3/3/1 2/3/1
f 6/2/1 2/2/1 5/2/1
f 7/2/1 4/2/1 3/2/1
f 7/3/1 3/3/1 6/3/1
f 8/2/1 4/2/1 7/2/1
f 13/2/1 10/2/1 9/2/1
f 14/3/1 11/3/1 10/3/1
f 14/2/1 10/2/1 13/2/1
f 15/2/1 12/2/1 11/2/1
f 15/3/1 11/3/1 14/3/1
f 16/2/1 12/2/1 15/2/1
f 21/2/1 18/2/1 17/2/1
f 22/3/1 19/3/1 18/3/1
f 22/2/1 18/2/1 21/2/1
f 23/2/1 20/2/1 19/2/1
f 23/3/1 19/3/1 22/3/1
f 24/2/1 20/2/1 23/2/1
f 29/2/1 26/2/1 25/2/1
f 30/3/1 27/3/1 26/3/1
f 30/2/1 26/2/1 29/2/1
f 31/2/1 28/2/1 27/2/1
f 31/3/1 27/3/1 30/3/1
f 32/2/1 28/2/1 31/2/1
f 37/2/1 34/2/1 33/2/1
f 38/3/1 35/3/1 34/3/1
f 38/2/1 34/2/1 37/2/1
f 39/2/1 36/2/1 35/2/1
f 39/3/1 35/3/1 38/3/1
f 40/2/1 36/2/1 39/2/1
f 45/2/1 42/2/1 41/2/1
f 46/3/1 43/3/1 42/3/1
f 46/2/1 42/2/1 45/2/1
f 47/2/1 44/2/1 43/2/1
f 47/3/1 43/3/1 46/3/1
f 48/2/1 44/2/1 47/2/1
f 53/2/1 50/2/1 49/2/1
f 54/3/1 51/3/1 50/3/1
f 54/2/1 50/2/1 53/2/1
f 55/2/1 52/2/1 51/2/1
f 55/3/1 51/3/1 54/3/1
f 56/2/1 52/2/1 55/2/1
f 61/2/1 58/2/1 57/2/1
f 62/3/1 59/3/1 58/3/1
f 62/2/1 58/2/1 61/2/1
f 63/2/1 60/2/1 59/2/1
f 63/3/1 59/3/1 62/3/1
f 64/2/1 60/2/1 63/2/1
f 69/2/1 66/2/1 65/2/1
f 70/3/1 67/3/1 66/3/1
f 70/2/1 66/2/1 69/2/1
f 71/2/1 68/2/1 67/2/1
f 71/3/1 67/3/1 70/3/1
f 72/2/1 68/2/1 71/2/1
f 77/3/1 74/3/1 73/3/1
f 78/3/1 74/3/1 77/3/1
f 79/3/1 76/3/1 75/3/1
f 80/3/1 76/3/1 79/3/1
f 85/3/1 82/3/1 81/3/1
f 86/3/1 82/3/1 85/3/1
f 87/3/1 84/3/1 83/3/1
f 88/3/1 84/3/1 87/3/1
f 93/3/1 90/3/1 89/3/1
f 94/3/1 90/3/1 93/3/1
f 95/3/1 92/3/1 91/3/1
f 96/3/1 92/3/1 95/3/1
f 101/3/1 98/3/1 97/3/1
f 102/3/1 98/3/1 101/3/1
f 103/3/1 100/3/1 99/3/1
f 104/3/1 100/3/1 103/3/1
f 109/3/1 106/3/1 105/3/1
f 110/3/1 106/3/1 109/3/1
f 111/3/1 108/3/1 107/3/1
f 112/3/1 108/3/1 111/3/1
f 113/3/2 114/3/2 117/3/2
f 117/3/2 114/3/2 118/3/2
f 115/3/2 116/3/2 119/3/2
f 119/3/2 116/3/2 120/3/2
f 121/3/2 122/3/2 125/3/2
f 125/3/2 122/3/2 126/3/2
f 123/3/2 124/3/2 127/3/2
f 127/3/2 124/3/2 128/3/2
f 129/3/2 130/3/2 133/3/2
f 133/3/2 130/3/2 134/3/2
f 131/3/2 132/3/2 135/3/2
f 135/3/2 132/3/2 136/3/2
f 137/3/2 138/3/2 141/3/2
f 141/3/2 138/3/2 142/3/2
f 139/3/2 140/3/2 143/3/2
f 143/3/2 140/3/2 144/3/2
f 145/3/2 146/3/2 149/3/2
f 149/3/2 146/3/2 150/3/2
f 147/3/2 148/3/2 151/3/2
f 151/3/2 148/3/2 152/3/2
f 153/2/2 154/2/2 157/2/2
f 154/3/2 155/3/2 158/3/2
f 157/2/2 154/2/2 158/2/2
f 155/2/2 156/2/2 159/2/2
f 158/3/2 155/3/2 159/3/2
f 159/2/2 156/2/2 160/2/2
f 161/2/2 162/2/2 165/2/2
f 162/3/2 163/3/2 166/3/2
f 165/2/2 162/2/2 166/2/2
f 163/2/2 164/2/2 167/2/2
f 166/3/2 163/3/2 167/3/2
f 167/2/2 164/2/2 168/2/2
f 169/2/2 170/2/2 173/2/2
f 170/3/2 171/3/2 174/3/2
f 173/2/2 170/2/2 174/2/2
f 171/2/2 172/2/2 175/2/2
f 174/3/2 171/3/2 175/3/2
f 175/2/2 172/2/2 176/2/2
f 177/2/2 178/2/2 181/2/2
f 178/3/2 179/3/2 182/3/2
f 181/2/2 178/2/2 182/2/2
f 179/2/2 180/2/2 183/2/2
f 182/3/2 179/3/2 183/3/2
f 183/2/2 180/2/2 184/2/2
f 185/2/2 186/2/2 189/2/2
f 186/3/2 187/3/2 190/3/2
f 189/2/2 186/2/2 190/2/2
f 187/2/2 188/2/2 191/2/2
f 190/3/2 187/3/2 191/3/2
f 191/2/2 188/2/2 192/2/2
f 193/2/2 194/2/2 197/2/2
f 194/3/2 195/3/2 198/3/2
f 197/2/2 194/2/2 198/2/2
f 195/2/2 196/2/2 199/2/2
f 198/3/2 195/3/2 199/3/2
f 199/2/2 196/2/2 200/2/2
f 201/2/2 202/2/2 205/2/2
f 202/3/2 203/3/2 206/3/2
f 205/2/2 202/2/2 206/2/2
f 203/2/2 204/2/2 207/2/2
f 206/3/2 203/3/2 207/3/2
f 207/2/2 204/2/2 208/2/2
f 209/2/2 210/2/2 213/2/2
f 210/3/2 211/3/2 214/3/2
f 213/2/2 210/2/2 214/2/2
f 211/2/2 212/2/2 215/2/2
f 214/3/2 211/3/2 215/3/2
f 215/2/2 212/2/2 216/2/2
f 217/2/2 218/2/2 221/2/2
f 218/3/2 219/3/2 222/3/2
f 221/2/2 218/2/2 222/2/2
f 219/2/2 220/2/2 223/2/2
f 222/3/2 219/3/2 223/3/2
f 223/2/2 220/2/2 224/2/2
f 228/2/3 226/2/3 225/2/3
f 229/2/3 226/2/3 228/2/3
f 232/2/3 228/2/3 227/2/3
f 233/3/3 229/3/3 228/3/3
f 233/2/3 228/2/3 232/2/3
f 234/2/3 230/2/3 229/2/3
f 234/3/3 229/3/3 233/3/3
f 235/2/3 230/2/3 234/2/3
f 238/2/3 232/2/3 231/2/3
f 239/3/3 233/3/3 232/3/3
f 239/3/3 234/3/3 233/3/3
f 239/2/3 232/2/3 238/2/3
f 239/3/3 235/3/3 234/3/3
f 240/2/3 236/2/3 235/2/3
f 240/3/3 235/3/3 239/3/3
f 241/2/3 236/2/3 240/2/3
f 244/2/3 238/2/3 237/2/3
f 245/3/3 239/3/3 238/3/3
f 245/3/3 240/3/3 239/3/3
f 245/2/3 238/2/3 244/2/3
f 245/3/3 241/3/3 240/3/3
f 246/3/3 241/3/3 245/3/3
f 247/3/3 241/3/3 246/3/3
f 248/2/3 242/2/3 241/2/3
f 248/3/3 241/3/3 247/3/3
f 249/2/3 242/2/3 248/2/3
f 251/3/3 245/3/3 244/3/3
f 251/3/3 246/3/3 245/3/3
f 252/3/3 246/3/3 251/3/3
f 253/3/3 249/3/3 248/3/3
f 253/3/3 248/3/3 247/3/3
f 254/3/3 249/3/3 253/3/3
f 255/3/3 251/3/3 244/3/3
f 256/3/3 251/3/3 255/3/3
f 257/3/3 249/3/3 254/3/3
f 258/3/3 249/3/3 257/3/3
f 259/3/3 255/3/3 244/3/3
f 262/3/3 249/3/3 258/3/3
f 263/3/3 260/3/3 259/3/3
f 266/3/3 262/3/3 261/3/3
f 267/2/3 244/2/3 243/2/3
f 268/3/3 264/3/3 263/3/3
f 268/2/3 244/2/3 267/2/3
f 268/3/3 259/3/3 244/3/3
f 268/3/3 263/3/3 259/3/3
f 269/3/3 264/3/3 268/3/3
f 270/3/3 264/3/3 269/3/3
f 271/3/3 266/3/3 265/3/3
f 272/3/3 262/3/3 266/3/3
f 272/3/3 249/3/3 262/3/3
f 272/3/3 266/3/3 271/3/3
f 273/2/3 250/2/3 249/2/3
f 273/3/3 249/3/3 272/3/3
f 274/2/3 250/2/3 273/2/3
f 275/2/3 269/2/3 268/2/3
f 276/3/3 272/3/3 271/3/3
f 276/2/3 269/2/3 275/2/3
f 276/3/3 270/3/3 269/3/3
f 276/3/3 271/3/3 270/3/3
f 277/3/3 272/3/3 276/3/3
f 278/3/3 272/3/3 277/3/3
f 279/2/3 273/2/3 272/2/3
f 279/3/3 272/3/3 278/3/3
f 280/2/3 273/2/3 279/2/3
f 281/2/3 277/2/3 276/2/3
f 282/3/3 278/3/3 277/3/3
f 282/2/3 277/2/3 281/2/3
f 283/3/3 278/3/3 282/3/3
f 284/3/3 278/3/3 283/3/3
f 285/2/3 279/2/3 278/2/3
f 285/3/3 278/3/3 284/3/3
f 286/2/3 279/2/3 285/2/3
f 287/2/3 283/2/3 282/2/3
f 288/3/3 284/3/3 283/3/3
f 288/2/3 283/2/3 287/2/3
f 289/2/3 285/2/3 284/2/3
f 289/3/3 284/3/3 288/3/3
f 290/2/3 285/2/3 289/2/3
f 291/2/3 289/2/3 288/2/3
f 292/2/3 289/2/3 291/2/3
f 296/1/3 294/1/3 293/1/3
f 297/1/3 294/1/3 296/1/3
f 300/4/3 296/4/3 295/4/3
f 301/1/3 297/1/3 296/1/3
f 301/4/3 296/4/3 300/4/3
f 302/4/3 298/4/3 297/4/3
f 302/1/3 297/1/3 301/1/3
f 303/4/3 298/4/3 302/4/3
f 305/1/3 301/1/3 300/1/3
f 305/1/3 300/1/3 299/1/3
f 306/1/3 301/1/3 305/1/3
f 307/4/3 302/4/3 301/4/3
f 307/1/3 301/1/3 306/1/3
f 308/1/3 304/1/3 303/1/3
f 308/4/3 302/4/3 307/4/3
f 308/1/3 303/1/3 302/1/3
f 309/1/3 304/1/3 308/1/3
f 310/1/3 304/1/3 309/1/3
f 311/4/3 307/4/3 306/4/3
f 312/1/3 308/1/3 307/1/3
f 312/4/3 307/4/3 311/4/3
f 313/4/3 309/4/3 308/4/3
f 313/1/3 308/1/3 312/1/3
f 314/4/3 309/4/3 313/4/3
f 315/1/3 313/1/3 312/1/3
f 316/1/3 313/1/3 315/1/3
f 317/1/4 318/1/4 320/1/4
f 320/1/4 318/1/4 321/1/4
f 319/4/4 320/4/4 324/4/4
f 320/1/4 321/1/4 325/1/4
f 324/4/4 320/4/4 325/4/4
f 321/4/4 322/4/4 326/4/4
f 325/1/4 321/1/4 326/1/4
f 326/4/4 322/4/4 327/4/4
f 324/1/4 325/1/4 329/1/4
f 323/1/4 324/1/4 329/1/4
f 329/1/4 325/1/4 330/1/4
f 325/4/4 326/4/4 331/4/4
f 330/1/4 325/1/4 331/1/4
f 327/1/4 328/1/4 332/1/4
f 331/4/4 326/4/4 332/4/4
f 326/1/4 327/1/4 332/1/4
f 332/1/4 328/1/4 333/1/4
f 333/1/4 328/1/4 334/1/4
f 330/4/4 331/4/4 335/4/4
f 331/1/4 332/1/4 336/1/4
f 335/4/4 331/4/4 336/4/4
f 332/4/4 333/4/4 337/4/4
f 336/1/4 332/1/4 337/1/4
f 337/4/4 333/4/4 338/4/4
f 336/1/4 337/1/4 339/1/4
f 339/1/4 337/1/4 340/1/4
f 341/2/4 342/2/4 344/2/4
f 344/2/4 342/2/4 345/2/4
f 343/2/4 344/2/4 348/2/4
f 344/3/4 345/3/4 349/3/4
f 348/2/4 344/2/4 349/2/4
f 345/2/4 346/2/4 350/2/4
f 349/3/4 345/3/4 350/3/4
f 350/2/4 346/2/4 351/2/4
f 347/2/4 348/2/4 354/2/4
f 348/3/4 349/3/4 355/3/4
f 349/3/4 350/3/4 355/3/4
f 354/2/4 348/2/4 355/2/4
f 350/3/4 351/3/4 355/3/4
f 351/2/4 352/2/4 356/2/4
f 355/3/4 351/3/4 356/3/4
f 356/2/4 352/2/4 357/2/4
f 353/2/4 354/2/4 360/2/4
f 354/3/4 355/3/4 361/3/4
f 355/3/4 356/3/4 361/3/4
f 360/2/4 354/2/4 361/2/4
f 356/3/4 357/3/4 361/3/4
f 361/3/4 357/3/4 362/3/4
f 362/3/4 357/3/4 363/3/4
f 357/2/4 358/2/4 364/2/4
f 363/3/4 357/3/4 364/3/4
f 364/2/4 358/2/4 365/2/4
f 360/3/4 361/3/4 367/3/4
f 361/3/4 362/3/4 367/3/4
f 367/3/4 362/3/4 368/3/4
f 364/3/4 365/3/4 369/3/4
f 363/3/4 364/3/4 369/3/4
f 369/3/4 365/3/4 370/3/4
f 360/3/4 367/3/4 371/3/4
f 371/3/4 367/3/4 372/3/4
f 370/3/4 365/3/4 373/3/4
f 373/3/4 365/3/4 374/3/4
f 360/3/4 371/3/4 375/3/4
f 374/3/4 365/3/4 378/3/4
f 375/3/4 376/3/4 379/3/4
f 377/3/4 378/3/4 382/3/4
f 359/2/4 360/2/4 383/2/4
f 379/3/4 380/3/4 384/3/4
f 383/2/4 360/2/4 384/2/4
f 360/3/4 375/3/4 384/3/4
f 375/3/4 379/3/4 384/3/4
f 384/3/4 380/3/4 385/3/4
f 385/3/4 380/3/4 386/3/4
f 381/3/4 382/3/4 387/3/4
f 382/3/4 378/3/4 388/3/4
f 378/3/4 365/3/4 388/3/4
f 387/3/4 382/3/4 388/3/4
f 365/2/4 366/2/4 389/2/4
f 388/3/4 365/3/4 389/3/4
f 389/2/4 366/2/4 390/2/4
f 384/2/4 385/2/4 391/2/4
f 387/3/4 388/3/4 392/3/4
f 391/2/4 385/2/4 392/2/4
f 385/3/4 386/3/4 392/3/4
f 386/3/4 387/3/4 392/3/4
f 392/3/4 388/3/4 393/3/4
f 393/3/4 388/3/4 394/3/4
f 388/2/4 389/2/4 395/2/4
f 394/3/4 388/3/4 395/3/4
f 395/2/4 389/2/4 396/2/4
f 392/2/4 393/2/4 397/2/4
f 393/3/4 394/3/4 398/3/4
f 397/2/4 393/2/4 398/2/4
f 398/3/4 394/3/4 399/3/4
f 399/3/4 394/3/4 400/3/4
f 394/2/4 395/2/4 401/2/4
f 400/3/4 394/3/4 401/3/4
f 401/2/4 395/2/4 402/2/4
f 398/2/4 399/2/4 403/2/4
f 399/3/4 400/3/4 404/3/4
f 403/2/4 399/2/4 404/2/4
f 400/2/4 401/2/4 405/2/4
f 404/3/4 400/3/4 405/3/4
f 405/2/4 401/2/4 406/2/4
f 404/2/4 405/2/4 407/2/4
f 407/2/4 405/2/4 408/2/4
f 411/2/5 410/2/5 409/2/5
f 412/2/5 410/2/5 411/2/5
f 413/3/5 412/3/5 411/3/5
f 414/3/5 412/3/5 413/3/5
f 415/2/5 414/2/5 413/2/5
f 416/2/5 414/2/5 415/2/5
f 421/2/5 418/2/5 417/2/5
f 422/2/5 418/2/5 421/2/5
f 423/2/5 420/2/5 419/2/5
f 424/2/5 420/2/5 423/2/5
f 425/3/5 422/3/5 421/3/5
f 426/3/5 422/3/5 425/3/5
f 427/3/5 424/3/5 423/3/5
f 428/3/5 424/3/5 427/3/5
f 429/2/5 426/2/5 425/2/5
f 430/2/5 426/2/5 429/2/5
f 431/2/5 428/2/5 427/2/5
f 432/2/5 428/2/5 431/2/5
f 437/2/5 434/2/5 433/2/5
f 438/2/5 434/2/5 437/2/5
f 439/2/5 436/2/5 435/2/5
f 440/2/5 436/2/5 439/2/5
f 441/3/5 438/3/5 437/3/5
f 442/3/5 438/3/5 441/3/5
f 443/3/5 440/3/5 439/3/5
f 444/3/5 440/3/5 443/3/5
f 445/2/5 442/2/5 441/2/5
f 446/2/5 442/2/5 445/2/5
f 447/2/5 444/2/5 443/2/5
f 448/2/5 444/2/5 447/2/5
f 453/2/5 450/2/5 449/2/5
f 454/2/5 450/2/5 453/2/5
f 455/2/5 452/2/5 451/2/5
f 456/2/5 452/2/5 455/2/5
f 457/3/5 454/3/5 453/3/5
f 458/3/5 454/3/5 457/3/5
f 459/3/5 456/3/5 455/3/5
f 460/3/5 456/3/5 459/3/5
f 461/2/5 458/2/5 457/2/5
f 462/2/5 458/2/5 461/2/5
f 463/2/5 460/2/5 459/2/5
f 464/2/5 460/2/5 463/2/5
f 469/2/5 466/2/5 465/2/5
f 470/2/5 466/2/5 469/2/5
f 471/2/5 468/2/5 467/2/5
f 472/2/5 468/2/5 471/2/5
f 473/3/5 470/3/5 469/3/5
f 474/3/5 470/3/5 473/3/5
f 475/3/5 472/3/5 471/3/5
f 476/3/5 472/3/5 475/3/5
f 477/2/5 474/2/5 473/2/5
f 478/2/5 474/2/5 477/2/5
f 479/2/5 476/2/5 475/2/5
f 480/2/5 476/2/5 479/2/5
f 485/3/5 482/3/5 481/3/5
f 486/3/5 482/3/5 485/3/5
f 487/3/5 484/3/5 483/3/5
f 488/3/5 484/3/5 487/3/5
f 493/3/5 490/3/5 489/3/5
f 494/3/5 490/3/5 493/3/5
f 495/3/5 492/3/5 491/3/5
f 496/3/5 492/3/5 495/3/5
f 501/3/5 498/3/5 497/3/5
f 502/3/5 498/3/5 501/3/5
f 503/3/5 500/3/5 499/3/5
f 504/3/5 500/3/5 503/3/5
f 509/3/5 506/3/5 505/3/5
f 510/3/5 506/3/5 509/3/5
f 511/3/5 508/3/5 507/3/5
f 512/3/5 508/3/5 511/3/5
f 515/3/5 514/3/5 513/3/5
f 516/3/5 514/3/5 515/3/5
f 519/3/5 518/3/5 517/3/5
f 520/3/5 518/3/5 519/3/5
f 521/3/6 522/3/6 523/3/6
f 523/3/6 522/3/6 524/3/6
f 525/3/6 526/3/6 527/3/6
f 527/3/6 526/3/6 528/3/6
f 529/3/6 530/3/6 533/3/6
f 533/3/6 530/3/6 534/3/6
f 531/3/6 532/3/6 535/3/6
f 535/3/6 532/3/6 536/3/6
f 537/3/6 538/3/6 541/3/6
f 541/3/6 538/3/6 542/3/6
f 539/3/6 540/3/6 543/3/6
f 543/3/6 540/3/6 544/3/6
f 545/3/6 546/3/6 549/3/6
f 549/3/6 546/3/6 550/3/6
f 547/3/6 548/3/6 551/3/6
f 551/3/6 548/3/6 552/3/6
f 553/3/6 554/3/6 557/3/6
f 557/3/6 554/3/6 558/3/6
f 555/3/6 556/3/6 559/3/6
f 559/3/6 556/3/6 560/3/6
f 561/2/6 562/2/6 565/2/6
f 565/2/6 562/2/6 566/2/6
f 563/2/6 564/2/6 567/2/6
f 567/2/6 564/2/6 568/2/6
f 565/3/6 566/3/6 569/3/6
f 569/3/6 566/3/6 570/3/6
f 567/3/6 568/3/6 571/3/6
f 571/3/6 568/3/6 572/3/6
f 569/2/6 570/2/6 573/2/6
f 573/2/6 570/2/6 574/2/6
f 571/2/6 572/2/6 575/2/6
f 575/2/6 572/2/6 576/2/6
f 577/2/6 578/2/6 581/2/6
f 581/2/6 578/2/6 582/2/6
f 579/2/6 580/2/6 583/2/6
f 583/2/6 580/2/6 584/2/6
f 581/3/6 582/3/6 585/3/6
f 585/3/6 582/3/6 586/3/6
f 583/3/6 584/3/6 587/3/6
f 587/3/6 584/3/6 588/3/6
f 585/2/6 586/2/6 589/2/6
f 589/2/6 586/2/6 590/2/6
f 587/2/6 588/2/6 591/2/6
f 591/2/6 588/2/6 592/2/6
f 593/2/6 594/2/6 597/2/6
f 597/2/6 594/2/6 598/2/6
f 595/2/6 596/2/6 599/2/6
f 599/2/6 596/2/6 600/2/6
f 597/3/6 598/3/6 601/3/6
f 601/3/6 598/3/6 602/3/6
f 599/3/6 600/3/6 603/3/6
f 603/3/6 600/3/6 604/3/6
f 601/2/6 602/2/6 605/2/6
f 605/2/6 602/2/6 606/2/6
f 603/2/6 604/2/6 607/2/6
f 607/2/6 604/2/6 608/2/6
f 609/2/6 610/2/6 613/2/6
f 613/2/6 610/2/6 614/2/6
f 611/2/6 612/2/6 615/2/6
f 615/2/6 612/2/6 616/2/6
f 613/3/6 614/3/6 617/3/6
f 617/3/6 614/3/6 618/3/6
f 615/3/6 616/3/6 619/3/6
f 619/3/6 616/3/6 620/3/6
f 617/2/6 618/2/6 621/2/6
f 621/2/6 618/2/6 622/2/6
f 619/2/6 620/2/6 623/2/6
f 623/2/6 620/2/6 624/2/6
f 625/2/6 626/2/6 627/2/6
f 627/2/6 626/2/6 628/2/6
f 627/3/6 628/3/6 629/3/6
f 629/3/6 628/3/6 630/3/6
f 629/2/6 630/2/6 631/2/6
f 631/2/6 630/2/6 632/2/6
