# MagicaVoxel @ Ephtracy

# group
o 

# material
mtllib ingredient_pipe.mtl
usemtl palette

# normals
vn -1 0 0
vn 1 0 0
vn 0 0 1
vn 0 0 -1
vn 0 -1 0
vn 0 1 0

# texcoords
vt 0.916016 0.5
vt 0.923828 0.5
vt 0.935547 0.5
vt 0.986328 0.5
vt 0.994141 0.5

# verts
v 0.4 0.9 0
v 0.4 0.9 -0.2
v 0.4 0.9 -3.8
v 0.4 0.9 -4
v 0.4 1.6 0
v 0.4 1.6 -0.2
v 0.4 1.6 -3.8
v 0.4 1.6 -4
v 0.4 1.7 0
v 0.4 1.7 -0.2
v 0.4 1.7 -3.8
v 0.4 1.7 -4
v 0.5 0.8 0
v 0.5 0.8 -0.2
v 0.5 0.8 -3.8
v 0.5 0.8 -4
v 0.5 0.9 0
v 0.5 0.9 -0.2
v 0.5 0.9 -3.8
v 0.5 0.9 -4
v 0.5 1 -0.2
v 0.5 1 -3.8
v 0.5 1.2 -0.2
v 0.5 1.2 -3.8
v 0.5 1.5 -0.2
v 0.5 1.5 -3.8
v 0.5 1.6 -0.2
v 0.5 1.6 -3.8
v 0.5 1.7 0
v 0.5 1.7 -0.2
v 0.5 1.7 -3.8
v 0.5 1.7 -4
v 0.5 1.8 0
v 0.5 1.8 -0.2
v 0.5 1.8 -3.8
v 0.5 1.8 -4
v 0.6 0.9 -0.2
v 0.6 0.9 -3.8
v 0.6 1 -0.2
v 0.6 1 -3.8
v 0.6 1.6 -0.2
v 0.6 1.6 -3.8
v 0.6 1.7 -0.2
v 0.6 1.7 -3.8
v 1.2 0.9 -0.2
v 1.2 0.9 -3.8
v 1.2 1 -0.2
v 1.2 1 -3.8
v 1.2 1.6 -0.2
v 1.2 1.6 -3.8
v 1.2 1.7 -0.2
v 1.2 1.7 -3.8
v 1.3 0.8 0
v 1.3 0.8 -0.2
v 1.3 0.8 -3.8
v 1.3 0.8 -4
v 1.3 0.9 0
v 1.3 0.9 -0.2
v 1.3 0.9 -3.8
v 1.3 0.9 -4
v 1.3 1 -0.2
v 1.3 1 -3.8
v 1.3 1.1 -0.2
v 1.3 1.1 -3.8
v 1.3 1.2 -0.2
v 1.3 1.2 -3.8
v 1.3 1.4 -0.2
v 1.3 1.4 -3.8
v 1.3 1.6 -0.2
v 1.3 1.6 -3.8
v 1.3 1.7 0
v 1.3 1.7 -0.2
v 1.3 1.7 -3.8
v 1.3 1.7 -4
v 1.3 1.8 0
v 1.3 1.8 -0.2
v 1.3 1.8 -3.8
v 1.3 1.8 -4
v 1.4 0.9 0
v 1.4 0.9 -0.2
v 1.4 0.9 -3.8
v 1.4 0.9 -4
v 1.4 1.1 0
v 1.4 1.1 -0.2
v 1.4 1.1 -3.8
v 1.4 1.1 -4
v 1.4 1.7 0
v 1.4 1.7 -0.2
v 1.4 1.7 -3.8
v 1.4 1.7 -4
v 0.4 0.9 0
v 0.4 1.6 0
v 0.4 1.7 0
v 0.5 0.8 0
v 0.5 0.9 0
v 0.5 1 0
v 0.5 1.6 0
v 0.5 1.7 0
v 0.5 1.8 0
v 0.6 0.9 0
v 0.6 1 0
v 0.6 1.6 0
v 0.6 1.7 0
v 0.7 1.7 0
v 0.7 1.8 0
v 1.2 0.8 0
v 1.2 0.9 0
v 1.2 1 0
v 1.2 1.6 0
v 1.2 1.7 0
v 1.3 0.8 0
v 1.3 0.9 0
v 1.3 1 0
v 1.3 1.1 0
v 1.3 1.6 0
v 1.3 1.7 0
v 1.3 1.8 0
v 1.4 0.9 0
v 1.4 1.1 0
v 1.4 1.7 0
v 0.4 0.9 -3.8
v 0.4 1.6 -3.8
v 0.4 1.7 -3.8
v 0.5 0.8 -3.8
v 0.5 0.9 -3.8
v 0.5 1 -3.8
v 0.5 1.2 -3.8
v 0.5 1.5 -3.8
v 0.5 1.6 -3.8
v 0.5 1.7 -3.8
v 0.5 1.8 -3.8
v 0.6 0.9 -3.8
v 0.6 1 -3.8
v 0.6 1.6 -3.8
v 0.6 1.7 -3.8
v 0.7 1.7 -3.8
v 0.7 1.8 -3.8
v 0.8 0.9 -3.8
v 0.8 1.7 -3.8
v 1 0.9 -3.8
v 1.1 0.9 -3.8
v 1.2 0.8 -3.8
v 1.2 0.9 -3.8
v 1.2 1 -3.8
v 1.2 1.6 -3.8
v 1.2 1.7 -3.8
v 1.3 0.8 -3.8
v 1.3 0.9 -3.8
v 1.3 1 -3.8
v 1.3 1.1 -3.8
v 1.3 1.2 -3.8
v 1.3 1.4 -3.8
v 1.3 1.6 -3.8
v 1.3 1.7 -3.8
v 1.3 1.8 -3.8
v 1.4 0.9 -3.8
v 1.4 1.1 -3.8
v 1.4 1.7 -3.8
v 0.4 0.9 -0.2
v 0.4 1.6 -0.2
v 0.4 1.7 -0.2
v 0.5 0.8 -0.2
v 0.5 0.9 -0.2
v 0.5 1 -0.2
v 0.5 1.2 -0.2
v 0.5 1.5 -0.2
v 0.5 1.6 -0.2
v 0.5 1.7 -0.2
v 0.5 1.8 -0.2
v 0.6 0.9 -0.2
v 0.6 1 -0.2
v 0.6 1.6 -0.2
v 0.6 1.7 -0.2
v 0.7 1.7 -0.2
v 0.7 1.8 -0.2
v 0.8 0.9 -0.2
v 0.8 1.7 -0.2
v 1 0.9 -0.2
v 1.1 0.9 -0.2
v 1.2 0.8 -0.2
v 1.2 0.9 -0.2
v 1.2 1 -0.2
v 1.2 1.6 -0.2
v 1.2 1.7 -0.2
v 1.3 0.8 -0.2
v 1.3 0.9 -0.2
v 1.3 1 -0.2
v 1.3 1.1 -0.2
v 1.3 1.2 -0.2
v 1.3 1.4 -0.2
v 1.3 1.6 -0.2
v 1.3 1.7 -0.2
v 1.3 1.8 -0.2
v 1.4 0.9 -0.2
v 1.4 1.1 -0.2
v 1.4 1.7 -0.2
v 0.4 0.9 -4
v 0.4 1.6 -4
v 0.4 1.7 -4
v 0.5 0.8 -4
v 0.5 0.9 -4
v 0.5 1 -4
v 0.5 1.6 -4
v 0.5 1.7 -4
v 0.5 1.8 -4
v 0.6 0.9 -4
v 0.6 1 -4
v 0.6 1.6 -4
v 0.6 1.7 -4
v 0.7 1.7 -4
v 0.7 1.8 -4
v 1.2 0.8 -4
v 1.2 0.9 -4
v 1.2 1 -4
v 1.2 1.6 -4
v 1.2 1.7 -4
v 1.3 0.8 -4
v 1.3 0.9 -4
v 1.3 1 -4
v 1.3 1.1 -4
v 1.3 1.6 -4
v 1.3 1.7 -4
v 1.3 1.8 -4
v 1.4 0.9 -4
v 1.4 1.1 -4
v 1.4 1.7 -4
v 0.5 0.8 0
v 1.2 0.8 0
v 1.3 0.8 0
v 0.5 0.8 -0.2
v 1.2 0.8 -0.2
v 1.3 0.8 -0.2
v 0.5 0.8 -3.8
v 1.2 0.8 -3.8
v 1.3 0.8 -3.8
v 0.5 0.8 -4
v 1.2 0.8 -4
v 1.3 0.8 -4
v 0.4 0.9 0
v 0.5 0.9 0
v 1.3 0.9 0
v 1.4 0.9 0
v 0.4 0.9 -0.2
v 0.5 0.9 -0.2
v 0.6 0.9 -0.2
v 0.8 0.9 -0.2
v 1 0.9 -0.2
v 1.1 0.9 -0.2
v 1.2 0.9 -0.2
v 1.3 0.9 -0.2
v 1.4 0.9 -0.2
v 0.4 0.9 -3.8
v 0.5 0.9 -3.8
v 0.6 0.9 -3.8
v 0.8 0.9 -3.8
v 1 0.9 -3.8
v 1.1 0.9 -3.8
v 1.2 0.9 -3.8
v 1.3 0.9 -3.8
v 1.4 0.9 -3.8
v 0.4 0.9 -4
v 0.5 0.9 -4
v 1.3 0.9 -4
v 1.4 0.9 -4
v 0.5 1 -0.2
v 0.6 1 -0.2
v 1.2 1 -0.2
v 1.3 1 -0.2
v 0.5 1 -3.8
v 0.6 1 -3.8
v 1.2 1 -3.8
v 1.3 1 -3.8
v 0.5 1.6 -0.2
v 0.6 1.6 -0.2
v 1.2 1.6 -0.2
v 1.3 1.6 -0.2
v 0.5 1.6 -3.8
v 0.6 1.6 -3.8
v 1.2 1.6 -3.8
v 1.3 1.6 -3.8
v 0.4 1.7 0
v 0.5 1.7 0
v 1.3 1.7 0
v 1.4 1.7 0
v 0.4 1.7 -0.2
v 0.5 1.7 -0.2
v 0.6 1.7 -0.2
v 0.7 1.7 -0.2
v 0.8 1.7 -0.2
v 1.2 1.7 -0.2
v 1.3 1.7 -0.2
v 1.4 1.7 -0.2
v 0.4 1.7 -3.8
v 0.5 1.7 -3.8
v 0.6 1.7 -3.8
v 0.7 1.7 -3.8
v 0.8 1.7 -3.8
v 1.2 1.7 -3.8
v 1.3 1.7 -3.8
v 1.4 1.7 -3.8
v 0.4 1.7 -4
v 0.5 1.7 -4
v 1.3 1.7 -4
v 1.4 1.7 -4
v 0.5 1.8 0
v 0.7 1.8 0
v 1.3 1.8 0
v 0.5 1.8 -0.2
v 0.7 1.8 -0.2
v 1.3 1.8 -0.2
v 0.5 1.8 -3.8
v 0.7 1.8 -3.8
v 1.3 1.8 -3.8
v 0.5 1.8 -4
v 0.7 1.8 -4
v 1.3 1.8 -4

# faces
f 5/2/1 2/2/1 1/2/1
f 6/2/1 2/2/1 5/2/1
f 7/2/1 4/2/1 3/2/1
f 8/2/1 4/2/1 7/2/1
f 9/1/1 6/1/1 5/1/1
f 10/1/1 6/1/1 9/1/1
f 11/1/1 8/1/1 7/1/1
f 12/1/1 8/1/1 11/1/1
f 17/2/1 14/2/1 13/2/1
f 18/2/1 14/2/1 17/2/1
f 19/2/1 16/2/1 15/2/1
f 20/2/1 16/2/1 19/2/1
f 23/3/1 22/3/1 21/3/1
f 24/3/1 22/3/1 23/3/1
f 25/4/1 24/4/1 23/4/1
f 26/4/1 24/4/1 25/4/1
f 27/3/1 26/3/1 25/3/1
f 28/3/1 26/3/1 27/3/1
f 33/1/1 30/1/1 29/1/1
f 34/1/1 30/1/1 33/1/1
f 35/1/1 32/1/1 31/1/1
f 36/1/1 32/1/1 35/1/1
f 39/2/1 38/2/1 37/2/1
f 40/2/1 38/2/1 39/2/1
f 43/2/1 42/2/1 41/2/1
f 44/2/1 42/2/1 43/2/1
f 45/3/2 46/3/2 47/3/2
f 47/3/2 46/3/2 48/3/2
f 49/3/2 50/3/2 51/3/2
f 51/3/2 50/3/2 52/3/2
f 53/1/2 54/1/2 57/1/2
f 57/1/2 54/1/2 58/1/2
f 55/1/2 56/1/2 59/1/2
f 59/1/2 56/1/2 60/1/2
f 61/2/2 62/2/2 63/2/2
f 63/2/2 62/2/2 64/2/2
f 63/2/2 64/2/2 65/2/2
f 65/2/2 64/2/2 66/2/2
f 65/3/2 66/3/2 67/3/2
f 67/3/2 66/3/2 68/3/2
f 67/4/2 68/4/2 69/4/2
f 69/4/2 68/4/2 70/4/2
f 71/2/2 72/2/2 75/2/2
f 75/2/2 72/2/2 76/2/2
f 73/2/2 74/2/2 77/2/2
f 77/2/2 74/2/2 78/2/2
f 79/1/2 80/1/2 83/1/2
f 83/1/2 80/1/2 84/1/2
f 81/1/2 82/1/2 85/1/2
f 85/1/2 82/1/2 86/1/2
f 83/2/2 84/2/2 87/2/2
f 87/2/2 84/2/2 88/2/2
f 85/2/2 86/2/2 89/2/2
f 89/2/2 86/2/2 90/2/2
f 95/2/3 92/2/3 91/2/3
f 96/2/3 92/2/3 95/2/3
f 97/1/3 93/1/3 92/1/3
f 97/2/3 92/2/3 96/2/3
f 98/1/3 93/1/3 97/1/3
f 100/2/3 96/2/3 95/2/3
f 100/2/3 95/2/3 94/2/3
f 101/4/3 97/4/3 96/4/3
f 101/2/3 96/2/3 100/2/3
f 102/2/3 98/2/3 97/2/3
f 102/4/3 97/4/3 101/4/3
f 103/1/3 99/1/3 98/1/3
f 103/2/3 98/2/3 102/2/3
f 104/4/3 103/4/3 102/4/3
f 104/1/3 99/1/3 103/1/3
f 105/1/3 99/1/3 104/1/3
f 106/2/3 100/2/3 94/2/3
f 107/4/3 101/4/3 100/4/3
f 107/2/3 100/2/3 106/2/3
f 108/5/3 102/5/3 101/5/3
f 108/4/3 101/4/3 107/4/3
f 109/4/3 104/4/3 102/4/3
f 109/5/3 102/5/3 108/5/3
f 110/2/3 105/2/3 104/2/3
f 110/4/3 104/4/3 109/4/3
f 111/1/3 107/1/3 106/1/3
f 112/2/3 108/2/3 107/2/3
f 112/1/3 107/1/3 111/1/3
f 113/4/3 109/4/3 108/4/3
f 113/2/3 108/2/3 112/2/3
f 114/4/3 109/4/3 113/4/3
f 115/2/3 110/2/3 109/2/3
f 115/4/3 109/4/3 114/4/3
f 116/2/3 105/2/3 110/2/3
f 116/2/3 110/2/3 115/2/3
f 117/2/3 105/2/3 116/2/3
f 118/1/3 114/1/3 113/1/3
f 118/1/3 113/1/3 112/1/3
f 119/2/3 115/2/3 114/2/3
f 119/1/3 114/1/3 118/1/3
f 119/2/3 116/2/3 115/2/3
f 120/2/3 116/2/3 119/2/3
f 125/2/3 122/2/3 121/2/3
f 126/2/3 122/2/3 125/2/3
f 127/2/3 122/2/3 126/2/3
f 128/2/3 122/2/3 127/2/3
f 129/1/3 123/1/3 122/1/3
f 129/2/3 122/2/3 128/2/3
f 130/1/3 123/1/3 129/1/3
f 132/2/3 125/2/3 124/2/3
f 132/2/3 126/2/3 125/2/3
f 133/2/3 126/2/3 132/2/3
f 134/1/3 131/1/3 130/1/3
f 134/1/3 130/1/3 129/1/3
f 135/1/3 131/1/3 134/1/3
f 136/1/3 131/1/3 135/1/3
f 137/1/3 131/1/3 136/1/3
f 138/2/3 132/2/3 124/2/3
f 139/2/3 137/2/3 136/2/3
f 140/2/3 138/2/3 124/2/3
f 141/2/3 140/2/3 124/2/3
f 142/2/3 141/2/3 124/2/3
f 143/2/3 141/2/3 142/2/3
f 146/2/3 137/2/3 139/2/3
f 147/1/3 143/1/3 142/1/3
f 148/2/3 144/2/3 143/2/3
f 148/1/3 143/1/3 147/1/3
f 149/2/3 144/2/3 148/2/3
f 153/2/3 146/2/3 145/2/3
f 154/2/3 137/2/3 146/2/3
f 154/2/3 146/2/3 153/2/3
f 155/2/3 137/2/3 154/2/3
f 156/1/3 149/1/3 148/1/3
f 156/1/3 150/1/3 149/1/3
f 157/2/3 152/2/3 151/2/3
f 157/1/3 150/1/3 156/1/3
f 157/2/3 153/2/3 152/2/3
f 157/2/3 151/2/3 150/2/3
f 157/2/3 154/2/3 153/2/3
f 158/2/3 154/2/3 157/2/3
f 159/2/4 160/2/4 163/2/4
f 163/2/4 160/2/4 164/2/4
f 164/2/4 160/2/4 165/2/4
f 165/2/4 160/2/4 166/2/4
f 160/1/4 161/1/4 167/1/4
f 166/2/4 160/2/4 167/2/4
f 167/1/4 161/1/4 168/1/4
f 162/2/4 163/2/4 170/2/4
f 163/2/4 164/2/4 170/2/4
f 170/2/4 164/2/4 171/2/4
f 167/2/4 168/2/4 172/2/4
f 168/1/4 169/1/4 173/1/4
f 172/2/4 168/2/4 173/2/4
f 173/1/4 169/1/4 174/1/4
f 174/1/4 169/1/4 175/1/4
f 162/2/4 170/2/4 176/2/4
f 174/2/4 175/2/4 177/2/4
f 162/2/4 176/2/4 178/2/4
f 162/2/4 178/2/4 179/2/4
f 162/2/4 179/2/4 180/2/4
f 180/2/4 179/2/4 181/2/4
f 177/2/4 175/2/4 184/2/4
f 180/1/4 181/1/4 185/1/4
f 181/2/4 182/2/4 186/2/4
f 185/1/4 181/1/4 186/1/4
f 186/2/4 182/2/4 187/2/4
f 183/2/4 184/2/4 191/2/4
f 184/2/4 175/2/4 192/2/4
f 191/2/4 184/2/4 192/2/4
f 192/2/4 175/2/4 193/2/4
f 186/1/4 187/1/4 194/1/4
f 187/1/4 188/1/4 194/1/4
f 189/2/4 190/2/4 195/2/4
f 194/1/4 188/1/4 195/1/4
f 190/2/4 191/2/4 195/2/4
f 188/2/4 189/2/4 195/2/4
f 191/2/4 192/2/4 195/2/4
f 195/2/4 192/2/4 196/2/4
f 197/2/4 198/2/4 201/2/4
f 201/2/4 198/2/4 202/2/4
f 198/1/4 199/1/4 203/1/4
f 202/2/4 198/2/4 203/2/4
f 203/1/4 199/1/4 204/1/4
f 201/2/4 202/2/4 206/2/4
f 200/2/4 201/2/4 206/2/4
f 202/4/4 203/4/4 207/4/4
f 206/2/4 202/2/4 207/2/4
f 203/2/4 204/2/4 208/2/4
f 207/4/4 203/4/4 208/4/4
f 204/1/4 205/1/4 209/1/4
f 208/2/4 204/2/4 209/2/4
f 208/4/4 209/4/4 210/4/4
f 209/1/4 205/1/4 210/1/4
f 210/1/4 205/1/4 211/1/4
f 200/2/4 206/2/4 212/2/4
f 206/4/4 207/4/4 213/4/4
f 212/2/4 206/2/4 213/2/4
f 207/5/4 208/5/4 214/5/4
f 213/4/4 207/4/4 214/4/4
f 208/4/4 210/4/4 215/4/4
f 214/5/4 208/5/4 215/5/4
f 210/2/4 211/2/4 216/2/4
f 215/4/4 210/4/4 216/4/4
f 212/1/4 213/1/4 217/1/4
f 213/2/4 214/2/4 218/2/4
f 217/1/4 213/1/4 218/1/4
f 214/4/4 215/4/4 219/4/4
f 218/2/4 214/2/4 219/2/4
f 219/4/4 215/4/4 220/4/4
f 215/2/4 216/2/4 221/2/4
f 220/4/4 215/4/4 221/4/4
f 216/2/4 211/2/4 222/2/4
f 221/2/4 216/2/4 222/2/4
f 222/2/4 211/2/4 223/2/4
f 219/1/4 220/1/4 224/1/4
f 218/1/4 219/1/4 224/1/4
f 220/2/4 221/2/4 225/2/4
f 224/1/4 220/1/4 225/1/4
f 221/2/4 222/2/4 225/2/4
f 225/2/4 222/2/4 226/2/4
f 230/2/5 228/2/5 227/2/5
f 231/1/5 229/1/5 228/1/5
f 231/2/5 228/2/5 230/2/5
f 232/1/5 229/1/5 231/1/5
f 236/2/5 234/2/5 233/2/5
f 237/1/5 235/1/5 234/1/5
f 237/2/5 234/2/5 236/2/5
f 238/1/5 235/1/5 237/1/5
f 243/2/5 240/2/5 239/2/5
f 244/2/5 240/2/5 243/2/5
f 250/1/5 242/1/5 241/1/5
f 251/1/5 242/1/5 250/1/5
f 254/2/5 246/2/5 245/2/5
f 255/3/5 247/3/5 246/3/5
f 255/2/5 246/2/5 254/2/5
f 256/4/5 248/4/5 247/4/5
f 256/3/5 247/3/5 255/3/5
f 257/3/5 249/3/5 248/3/5
f 257/4/5 248/4/5 256/4/5
f 258/3/5 249/3/5 257/3/5
f 261/2/5 253/2/5 252/2/5
f 262/2/5 253/2/5 261/2/5
f 263/1/5 260/1/5 259/1/5
f 264/1/5 260/1/5 263/1/5
f 269/3/5 266/3/5 265/3/5
f 270/3/5 266/3/5 269/3/5
f 271/2/5 268/2/5 267/2/5
f 272/2/5 268/2/5 271/2/5
f 273/3/6 274/3/6 277/3/6
f 277/3/6 274/3/6 278/3/6
f 275/4/6 276/4/6 279/4/6
f 279/4/6 276/4/6 280/4/6
f 281/1/6 282/1/6 285/1/6
f 285/1/6 282/1/6 286/1/6
f 283/2/6 284/2/6 291/2/6
f 291/2/6 284/2/6 292/2/6
f 287/2/6 288/2/6 295/2/6
f 288/2/6 289/2/6 295/2/6
f 295/2/6 289/2/6 296/2/6
f 289/3/6 290/3/6 297/3/6
f 296/2/6 289/2/6 297/2/6
f 297/3/6 290/3/6 298/3/6
f 293/1/6 294/1/6 301/1/6
f 301/1/6 294/1/6 302/1/6
f 299/2/6 300/2/6 303/2/6
f 303/2/6 300/2/6 304/2/6
f 305/1/6 306/1/6 308/1/6
f 306/2/6 307/2/6 309/2/6
f 308/1/6 306/1/6 309/1/6
f 309/2/6 307/2/6 310/2/6
f 311/1/6 312/1/6 314/1/6
f 312/2/6 313/2/6 315/2/6
f 314/1/6 312/1/6 315/1/6
f 315/2/6 313/2/6 316/2/6
